<?xml version="1.0" standalone="no"?>
<!DOCTYPE svg PUBLIC "-//W3C//DTD SVG 20010904//EN"
 "http://www.w3.org/TR/2001/REC-SVG-20010904/DTD/svg10.dtd">
<svg version="1.0" xmlns="http://www.w3.org/2000/svg"
 width="308.000000pt" height="308.000000pt" viewBox="0 0 308.000000 308.000000"
 preserveAspectRatio="xMidYMid meet">
<metadata>
Created by potrace 1.14, written by Peter Selinger 2001-2017
</metadata>
<g transform="translate(0.000000,308.000000) scale(0.100000,-0.100000)"
fill="#000000" stroke="none">
<path d="M0 1540 l0 -1540 1540 0 1540 0 0 1540 0 1540 -1540 0 -1540 0 0
-1540z m1848 504 c116 -58 156 -147 150 -332 -3 -102 -7 -123 -30 -167 -31
-59 -57 -85 -118 -117 -43 -22 -56 -23 -287 -26 l-243 -4 0 -219 c0 -124 -4
-228 -10 -238 -13 -25 -35 -32 -65 -21 l-25 10 0 554 c0 305 3 561 6 570 5 14
40 16 288 16 l282 0 52 -26z m496 -217 c61 -35 118 -66 126 -70 8 -4 31 -17
50 -28 76 -46 260 -149 266 -149 15 0 54 -57 54 -77 0 -20 -34 -63 -51 -63 -4
0 -44 -21 -90 -47 -90 -51 -145 -82 -196 -108 -20 -10 -30 -22 -26 -31 3 -8 0
-14 -6 -14 -6 0 -11 4 -11 10 0 5 -24 -4 -52 -20 -29 -17 -78 -44 -109 -60
l-56 -29 -28 29 c-15 15 -25 36 -23 45 3 16 172 119 303 185 22 12 63 34 90
50 28 17 65 37 83 46 18 9 31 21 30 26 -2 5 -33 25 -68 45 -112 61 -125 68
-140 79 -8 6 -49 29 -90 51 -172 93 -209 119 -210 154 0 16 19 39 33 39 5 0
59 -28 121 -63z m-1445 14 c12 -16 21 -34 21 -40 0 -14 -42 -40 -220 -139 -14
-7 -55 -30 -91 -50 -36 -20 -98 -55 -137 -76 l-72 -40 68 -39 c80 -47 108 -63
277 -157 129 -72 175 -107 175 -133 0 -16 -20 -37 -37 -37 -10 0 -142 71 -263
142 -19 11 -64 36 -100 56 -36 19 -69 38 -75 42 -5 4 -37 22 -70 40 -80 44
-105 67 -105 102 0 31 40 61 165 127 33 17 139 76 235 130 96 54 183 99 192
100 9 1 26 -12 37 -28z"/>
<path d="M1320 1735 l0 -245 208 0 c212 0 266 7 313 41 49 35 63 82 63 210 1
110 -1 118 -27 157 -50 76 -74 82 -332 82 l-225 0 0 -245z"/>
</g>
</svg>
